<?xml version="1.0" encoding="UTF-8"?>
<svg id="Layer_1" data-name="Layer 1" xmlns="http://www.w3.org/2000/svg" viewBox="0 0 208.35 43.53">
  <path d="M90.82,32.43V10.59l-1.22-1.22v15.84l-2.39,2.39v4.83h3.61Z"/>
  <path d="M107.27,39.08c0-2.46,2-4.45,4.45-4.45s4.45,2,4.45,4.45-2,4.45-4.45,4.45-4.45-2-4.45-4.45ZM109.36,39.08c0,1.3,1.06,2.36,2.36,2.36s2.35-1.06,2.35-2.36-1.06-2.36-2.35-2.36-2.36,1.06-2.36,2.36Z"/>
  <path d="M74.84,39.08c0-2.46,2-4.45,4.45-4.45s4.45,2,4.45,4.45-2,4.45-4.45,4.45-4.45-2-4.45-4.45ZM76.93,39.08c0,1.3,1.06,2.36,2.36,2.36s2.36-1.06,2.36-2.36-1.06-2.36-2.36-2.36-2.36,1.06-2.36,2.36Z"/>
  <path d="M64.34,39.08c0-2.46,2-4.45,4.45-4.45s4.45,2,4.45,4.45-2,4.45-4.45,4.45-4.45-2-4.45-4.45ZM66.43,39.08c0,1.3,1.06,2.36,2.36,2.36s2.36-1.06,2.36-2.36-1.06-2.36-2.36-2.36-2.36,1.06-2.36,2.36Z"/>
  <path d="M14.8,39.08c0-2.46,2-4.45,4.45-4.45s4.45,2,4.45,4.45-2,4.45-4.45,4.45-4.45-2-4.45-4.45ZM16.9,39.08c0,1.3,1.06,2.36,2.36,2.36s2.36-1.06,2.36-2.36-1.06-2.36-2.36-2.36-2.36,1.06-2.36,2.36Z"/>
  <path d="M3.74,39.08c0-2.46,2-4.45,4.45-4.45s4.45,2,4.45,4.45-2,4.45-4.45,4.45-4.45-2-4.45-4.45ZM5.84,39.08c0,1.3,1.06,2.36,2.36,2.36s2.36-1.06,2.36-2.36-1.06-2.36-2.36-2.36-2.36,1.06-2.36,2.36Z"/>
  <path d="M71.43,32.43h-10.26c0-.83.67-1.5,1.5-1.5h21.76c.83,0,1.5.67,1.5,1.5h-14.5Z"/>
  <path d="M86.23,5.81v24.37h-25.49l-1.3,1.5H0v-1.5h1.87V0h78.35l6,5.81h.01Z"/>
  <path d="M74.04,39.08c0-2.9,2.35-5.25,5.25-5.25h-10.5c2.9,0,5.25,2.35,5.25,5.25Z"/>
  <path d="M60.64,36.55h.25v4.55h.57v-4.55h.59v2.53h1.5c0-2.9,2.35-5.25,5.25-5.25h-8.15v2.72h0Z"/>
  <path d="M119.87,34.39v-10.68h-1.12v.65l-12.09-1.31-3-9.47h.84v-.47h-5.9c0-5.06-6.19-5.37-6.19-5.37v26.08h-13.12c2.9,0,5.25,2.35,5.25,5.25h21.15v2.02h.57v-2.02h.31c0-2.9,2.35-5.25,5.25-5.25s5.25,2.35,5.25,5.25h3.94v-4.69h-1.14ZM108.04,25.87h-3.71c.1-.95.89-1.69,1.86-1.69s1.76.74,1.85,1.69ZM96.72,14.15h5.91l2.53,8.62h-8.43v-8.62h-.01ZM96.62,26.07c0-.2.16-.37.37-.37h1.06c.2,0,.37.17.37.37v1.63c0,.21-.17.37-.37.37h-1.06c-.2,0-.37-.16-.37-.37v-1.63ZM105.16,37.3h-11.34v-1.5h11.34v1.5ZM106.19,31.68c-.86,0-1.58-.58-1.8-1.38h3.59c-.22.79-.94,1.38-1.8,1.38h.01ZM108.03,30.15h-3.68c0-.05,0-.11-.02-.16h3.71c0,.05,0,.11,0,.16h0ZM108.06,29.8v.03h-3.74v-3.12h3.75v3.09h0ZM108.06,26.55h-3.75v-.19h3.75v.19ZM108.06,26.21h-3.75v-.19h3.74v.19h0ZM110.67,30.18l-.73.28v-4.76l.73.09v4.39ZM112.62,29.43l-1.1.42v-3.96l1.1.13v3.41ZM114.56,28.67l-1.1.43v-2.98l1.1.13v2.43h0ZM116.12,28.07l-.72.28v-2l.72.08v1.64Z"/>
  <path d="M2.44,32.74v8.36h.57v-3.92h.17c.77-1.97,2.68-3.37,4.92-3.37s4.15,1.4,4.92,3.37h1.36c.77-1.97,2.68-3.37,4.92-3.37s4.15,1.4,4.92,3.37h.91v-4.44H2.44Z"/>
  <path d="M193.74,30.51c3.32,0,6.01,2.69,6.01,6.01s-2.69,6.01-6.01,6.01-6.01-2.69-6.01-6.01,2.69-6.01,6.01-6.01ZM193.67,40.4c2.06,0,3.74-1.67,3.74-3.74s-1.67-3.74-3.74-3.74-3.74,1.67-3.74,3.74,1.67,3.74,3.74,3.74Z"/>
  <path d="M143.64,30.51c3.32,0,6.01,2.69,6.01,6.01s-2.69,6.01-6.01,6.01-6.01-2.69-6.01-6.01,2.69-6.01,6.01-6.01ZM143.57,40.4c2.06,0,3.74-1.67,3.74-3.74s-1.67-3.74-3.74-3.74-3.74,1.67-3.74,3.74,1.67,3.74,3.74,3.74Z"/>
  <path d="M132.96,30.09c.08-1.84,1.11-2.31,1.11-2.31,0-.02,0-.26-.06-2.61-.06-2.79,1.45-4.37,1.45-4.37,3.69-3.34,7.99-5.32,7.99-5.32.18.1-1.07-.92-.95-.95.33-.08,4.36-.34,7.35-.52.05-.3-.51-1.19-.51-1.19,0,0-3.86-5.53-3.94-5.69-.16-.33.19,0,.12-.02,0,0,3.52,5.01,3.94,5.67.33.53.86,1.02,1.06,1.19.34-.02.66-.04.94-.05,7.88-.44,16.91.14,20.38.34,3.46.2,4.11.88,4.11.88,3.54,1.94,9.54,5.81,10.55,6.41.66.4,2.8.73,2.8.73l10.04,1.46c6.57.97,6.58,2.42,7.03,2.58.46.15,1.44,2.12,1.57,2.76.38.17.38.85.38.85,0,0,0,.7.03,1.5.03.47-.1,1.17-.1,1.17.05,3.16-1.79,3.32-2.19,3.47-.41.15-5.4.2-5.4.2,0,0,.17-1.99-.49-3.41-.66-1.43-2.46-5.3-8.27-4.28-5.81,1.02-5.4,8.71-5.4,8.71l-35.57-.07c-.5-6.21-2.55-8.89-7.65-8.89-3.84,0-5.79,3.83-6.02,4.27,0,0-.46.75-.5,3.19-.04.1-.75.13-1.44-.05-1.84-.46-1.7-2.82-1.72-3.15-.65-.47-.63-.83-.62-1.12,0-.3-.02-1.1,0-1.37h-.01ZM202.46,29.42s4.6.15,5.08-.33c0,0-1.04-2.67-1.71-2.78-.67.14-2.31.38-2.74.58-.43.2-1.17.27-1.1,1.03.07.77.07,1.17.47,1.5ZM186.26,21.75l-10.66-6.49c-.34.07.46.56.46.56,0,0,8.54,6.14,8.91,6.41s1.29-.49,1.29-.49h0ZM165.66,26.48l3.4.08c.38,0,.39-.16.39-.37s-.02-.38-.37-.39l-3.4-.08c-.32,0-.39.16-.39.37,0,.35.16.39.37.39ZM165.95,23.08c.3.33,17.32.73,17.32.73.21.02,1.38-.11.33-1.3-.97-1.1-7.41-5.64-7.71-5.77s-1.27-.97-4.47-1.23c-3.2-.27-6.81-.37-6.81-.37,0,0,1.04,7.61,1.34,7.94h0ZM162.98,22.98l-.27-7.44c0-.67-.83-.63-.83-.63,0,0-9.25,0-9.78-.03-.54-.03-.8.43-.8.43,0,0-3.3,4.61-4.44,7.14,0,.17,16.12.53,16.12.53h0ZM146.23,25.77l3.4.08c.38,0,.39-.16.39-.37s-.02-.38-.37-.39l-3.4-.09c-.32,0-.39.16-.39.38,0,.35.16.39.37.39ZM141.7,22.32c.38.03,3.6.1,3.84,0,2.03-3.3,4.83-7.31,4.83-7.31,0,0-2.12.08-4.53,1.69-2.4,1.6-3.06,2.37-4.42,3.59-1.04.99-.38,1.98.28,2.03ZM134.46,27.81c.29-.03,1.65,0,1.65,0,0,0,.2-4.61.42-5.89-.82-.12-1.48.12-1.48.12,0,0-1.07,1.34-.6,5.77h.01Z"/>
</svg>