<?xml version="1.0" encoding="UTF-8"?>
<svg id="Layer_1" xmlns="http://www.w3.org/2000/svg" version="1.1" xmlns:xlink="http://www.w3.org/1999/xlink" viewBox="0 0 209.98 45.25">
  <!-- Generator: Adobe Illustrator 29.6.1, SVG Export Plug-In . SVG Version: 2.1.1 Build 9)  -->
  <defs>
    <style>
      .st0 {
        fill: url(#linear-gradient2);
      }

      .st1 {
        fill: url(#linear-gradient10);
      }

      .st2 {
        fill: url(#linear-gradient1);
      }

      .st3 {
        fill: url(#linear-gradient9);
      }

      .st4 {
        fill: url(#linear-gradient8);
      }

      .st5 {
        fill: url(#linear-gradient11);
      }

      .st6 {
        fill: url(#linear-gradient12);
      }

      .st7 {
        fill: url(#linear-gradient7);
      }

      .st8 {
        fill: url(#linear-gradient4);
      }

      .st9 {
        fill: url(#linear-gradient14);
      }

      .st10 {
        fill: url(#linear-gradient5);
      }

      .st11 {
        fill: url(#linear-gradient3);
      }

      .st12 {
        fill: url(#linear-gradient6);
      }

      .st13 {
        fill: url(#linear-gradient13);
      }

      .st14 {
        fill: url(#linear-gradient);
      }
    </style>
    <linearGradient id="linear-gradient" x1="-473.65" y1="614.38" x2="-476.7" y2="614.38" gradientTransform="translate(564 -592.55)" gradientUnits="userSpaceOnUse">
      <stop offset=".23" stop-color="#decc80"/>
      <stop offset="1" stop-color="#936328"/>
    </linearGradient>
    <linearGradient id="linear-gradient1" x1="-448.97" y1="632.56" x2="-456.51" y2="632.56" gradientTransform="translate(564 -592.55)" gradientUnits="userSpaceOnUse">
      <stop offset=".23" stop-color="#decc80"/>
      <stop offset="1" stop-color="#936328"/>
    </linearGradient>
    <linearGradient id="linear-gradient2" x1="-481.4" y1="632.56" x2="-488.93" y2="632.56" gradientTransform="translate(564 -592.55)" gradientUnits="userSpaceOnUse">
      <stop offset=".23" stop-color="#decc80"/>
      <stop offset="1" stop-color="#936328"/>
    </linearGradient>
    <linearGradient id="linear-gradient3" x1="-491.9" y1="632.56" x2="-499.43" y2="632.56" gradientTransform="translate(564 -592.55)" gradientUnits="userSpaceOnUse">
      <stop offset=".23" stop-color="#decc80"/>
      <stop offset="1" stop-color="#936328"/>
    </linearGradient>
    <linearGradient id="linear-gradient4" x1="-541.44" y1="632.56" x2="-548.97" y2="632.56" gradientTransform="translate(564 -592.55)" gradientUnits="userSpaceOnUse">
      <stop offset=".23" stop-color="#decc80"/>
      <stop offset="1" stop-color="#936328"/>
    </linearGradient>
    <linearGradient id="linear-gradient5" x1="-552.49" y1="632.56" x2="-560.03" y2="632.56" gradientTransform="translate(564 -592.55)" gradientUnits="userSpaceOnUse">
      <stop offset=".23" stop-color="#decc80"/>
      <stop offset="1" stop-color="#936328"/>
    </linearGradient>
    <linearGradient id="linear-gradient6" x1="-481.25" y1="625.16" x2="-502.19" y2="625.16" gradientTransform="translate(564 -592.55)" gradientUnits="userSpaceOnUse">
      <stop offset=".23" stop-color="#decc80"/>
      <stop offset="1" stop-color="#936328"/>
    </linearGradient>
    <linearGradient id="linear-gradient7" x1="-488.84" y1="609.32" x2="-561.79" y2="609.32" gradientTransform="translate(564 -592.55)" gradientUnits="userSpaceOnUse">
      <stop offset=".23" stop-color="#decc80"/>
      <stop offset="1" stop-color="#936328"/>
    </linearGradient>
    <linearGradient id="linear-gradient8" x1="-486.06" y1="629.94" x2="-494.94" y2="629.94" gradientTransform="translate(564 -592.55)" gradientUnits="userSpaceOnUse">
      <stop offset=".23" stop-color="#decc80"/>
      <stop offset="1" stop-color="#936328"/>
    </linearGradient>
    <linearGradient id="linear-gradient9" x1="-496.25" y1="630.95" x2="-503.15" y2="630.95" gradientTransform="translate(564 -592.55)" gradientUnits="userSpaceOnUse">
      <stop offset=".23" stop-color="#decc80"/>
      <stop offset="1" stop-color="#936328"/>
    </linearGradient>
    <linearGradient id="linear-gradient10" x1="-448.35" y1="617.9" x2="-483.64" y2="617.9" gradientTransform="translate(564 -592.55)" gradientUnits="userSpaceOnUse">
      <stop offset=".23" stop-color="#decc80"/>
      <stop offset="1" stop-color="#936328"/>
    </linearGradient>
    <linearGradient id="linear-gradient11" x1="-541.8" y1="630.4" x2="-560.98" y2="630.4" gradientTransform="translate(564 -592.55)" gradientUnits="userSpaceOnUse">
      <stop offset=".23" stop-color="#decc80"/>
      <stop offset="1" stop-color="#936328"/>
    </linearGradient>
    <linearGradient id="linear-gradient12" x1="-364.25" y1="630" x2="-376.27" y2="630" gradientTransform="translate(564 -592.55)" gradientUnits="userSpaceOnUse">
      <stop offset="0" stop-color="#905f26"/>
      <stop offset=".8" stop-color="#f4eb9a"/>
      <stop offset="1" stop-color="#905f26"/>
    </linearGradient>
    <linearGradient id="linear-gradient13" x1="-414.35" y1="630" x2="-426.37" y2="630" gradientTransform="translate(564 -592.55)" gradientUnits="userSpaceOnUse">
      <stop offset="0" stop-color="#905f26"/>
      <stop offset=".8" stop-color="#f4eb9a"/>
      <stop offset="1" stop-color="#905f26"/>
    </linearGradient>
    <linearGradient id="linear-gradient14" x1="-355.65" y1="615.62" x2="-431.04" y2="615.62" gradientTransform="translate(564 -592.55)" gradientUnits="userSpaceOnUse">
      <stop offset="0" stop-color="#905f26"/>
      <stop offset=".8" stop-color="#f4eb9a"/>
      <stop offset="1" stop-color="#905f26"/>
    </linearGradient>
  </defs>
  <path class="st14" d="M90.82,33.36V11.52l-1.22-1.22v15.84l-2.39,2.39v4.83h3.61Z"/>
  <path class="st2" d="M107.27,40.01c0-2.46,2-4.45,4.45-4.45s4.45,2,4.45,4.45-2,4.45-4.45,4.45-4.45-2-4.45-4.45ZM109.36,40.01c0,1.3,1.06,2.36,2.36,2.36s2.35-1.06,2.35-2.36-1.06-2.36-2.35-2.36-2.36,1.06-2.36,2.36Z"/>
  <path class="st0" d="M74.84,40.01c0-2.46,2-4.45,4.45-4.45s4.45,2,4.45,4.45-2,4.45-4.45,4.45-4.45-2-4.45-4.45ZM76.93,40.01c0,1.3,1.06,2.36,2.36,2.36s2.36-1.06,2.36-2.36-1.06-2.36-2.36-2.36-2.36,1.06-2.36,2.36Z"/>
  <path class="st11" d="M64.34,40.01c0-2.46,2-4.45,4.45-4.45s4.45,2,4.45,4.45-2,4.45-4.45,4.45-4.45-2-4.45-4.45ZM66.43,40.01c0,1.3,1.06,2.36,2.36,2.36s2.36-1.06,2.36-2.36-1.06-2.36-2.36-2.36-2.36,1.06-2.36,2.36Z"/>
  <path class="st8" d="M14.8,40.01c0-2.46,2-4.45,4.45-4.45s4.45,2,4.45,4.45-2,4.45-4.45,4.45-4.45-2-4.45-4.45ZM16.9,40.01c0,1.3,1.06,2.36,2.36,2.36s2.36-1.06,2.36-2.36-1.06-2.36-2.36-2.36-2.36,1.06-2.36,2.36Z"/>
  <path class="st10" d="M3.74,40.01c0-2.46,2-4.45,4.45-4.45s4.45,2,4.45,4.45-2,4.45-4.45,4.45-4.45-2-4.45-4.45ZM5.84,40.01c0,1.3,1.06,2.36,2.36,2.36s2.36-1.06,2.36-2.36-1.06-2.36-2.36-2.36-2.36,1.06-2.36,2.36Z"/>
  <path class="st12" d="M71.43,33.36h-10.26c0-.83.67-1.5,1.5-1.5h21.76c.83,0,1.5.67,1.5,1.5h-14.5Z"/>
  <path class="st7" d="M86.23,6.74v24.37h-25.49l-1.3,1.5H0v-1.5h1.87V.93h78.35l6,5.81h.01Z"/>
  <path class="st4" d="M74.04,40.01c0-2.9,2.35-5.25,5.25-5.25h-10.5c2.9,0,5.25,2.35,5.25,5.25Z"/>
  <path class="st3" d="M60.64,37.48h.25v4.55h.57v-4.55h.59v2.53h1.5c0-2.9,2.35-5.25,5.25-5.25h-8.15v2.72h0Z"/>
  <path class="st1" d="M119.87,35.32v-10.68h-1.12v.65l-12.09-1.31-3-9.47h.84v-.47h-5.9c0-5.06-6.19-5.37-6.19-5.37v26.08h-13.12c2.9,0,5.25,2.35,5.25,5.25h21.15v2.02h.57v-2.02h.31c0-2.9,2.35-5.25,5.25-5.25s5.25,2.35,5.25,5.25h3.94v-4.69h-1.14ZM108.04,26.8h-3.71c.1-.95.89-1.69,1.86-1.69s1.76.74,1.85,1.69ZM96.72,15.08h5.91l2.53,8.62h-8.43v-8.62h-.01ZM96.62,27c0-.2.16-.37.37-.37h1.06c.2,0,.37.17.37.37v1.63c0,.21-.17.37-.37.37h-1.06c-.2,0-.37-.16-.37-.37v-1.63ZM105.16,38.23h-11.34v-1.5h11.34v1.5ZM106.19,32.61c-.86,0-1.58-.58-1.8-1.38h3.59c-.22.79-.94,1.38-1.8,1.38h.01ZM108.03,31.08h-3.68c0-.05,0-.11-.02-.16h3.71c0,.05,0,.11,0,.16h0ZM108.06,30.73v.03h-3.74v-3.12h3.75v3.09h0ZM108.06,27.48h-3.75v-.19h3.75v.19ZM108.06,27.14h-3.75v-.19h3.74v.19h0ZM110.67,31.11l-.73.28v-4.76l.73.09v4.39ZM112.62,30.36l-1.1.42v-3.96l1.1.13v3.41ZM114.56,29.6l-1.1.43v-2.98l1.1.13v2.43h0ZM116.12,29l-.72.28v-2l.72.08v1.64Z"/>
  <path class="st5" d="M2.44,33.67v8.36h.57v-3.92h.17c.77-1.97,2.68-3.37,4.92-3.37s4.15,1.4,4.92,3.37h1.36c.77-1.97,2.68-3.37,4.92-3.37s4.15,1.4,4.92,3.37h.91v-4.44H2.44Z"/>
  <path class="st6" d="M193.74,31.44c3.32,0,6.01,2.69,6.01,6.01s-2.69,6.01-6.01,6.01-6.01-2.69-6.01-6.01,2.69-6.01,6.01-6.01ZM193.67,41.33c2.06,0,3.74-1.67,3.74-3.74s-1.67-3.74-3.74-3.74-3.74,1.67-3.74,3.74,1.67,3.74,3.74,3.74Z"/>
  <path class="st13" d="M143.64,31.44c3.32,0,6.01,2.69,6.01,6.01s-2.69,6.01-6.01,6.01-6.01-2.69-6.01-6.01,2.69-6.01,6.01-6.01ZM143.57,41.33c2.06,0,3.74-1.67,3.74-3.74s-1.67-3.74-3.74-3.74-3.74,1.67-3.74,3.74,1.67,3.74,3.74,3.74Z"/>
  <path class="st9" d="M132.96,31.02c.08-1.84,1.11-2.31,1.11-2.31,0-.02,0-.26-.06-2.61-.06-2.79,1.45-4.37,1.45-4.37,3.69-3.34,7.99-5.32,7.99-5.32.18.1-1.07-.92-.95-.95.33-.08,4.36-.34,7.35-.52.05-.3-.51-1.19-.51-1.19,0,0-3.86-5.53-3.94-5.69-.16-.33.19,0,.12-.02,0,0,3.52,5.01,3.94,5.67.33.53.86,1.02,1.06,1.19.34-.02.66-.04.94-.05,7.88-.44,16.91.14,20.38.34,3.46.2,4.11.88,4.11.88,3.54,1.94,9.54,5.81,10.55,6.41.66.4,2.8.73,2.8.73l10.04,1.46c6.57.97,6.58,2.42,7.03,2.58.46.15,1.44,2.12,1.57,2.76.38.17.38.85.38.85,0,0,0,.7.03,1.5.03.47-.1,1.17-.1,1.17.05,3.16-1.79,3.32-2.19,3.47-.41.15-5.4.2-5.4.2,0,0,.17-1.99-.49-3.41-.66-1.43-2.46-5.3-8.27-4.28-5.81,1.02-5.4,8.71-5.4,8.71l-35.57-.07c-.5-6.21-2.55-8.89-7.65-8.89-3.84,0-5.79,3.83-6.02,4.27,0,0-.46.75-.5,3.19-.04.1-.75.13-1.44-.05-1.84-.46-1.7-2.82-1.72-3.15-.65-.47-.63-.83-.62-1.12,0-.3-.02-1.1,0-1.37h-.01ZM202.46,30.35s4.6.15,5.08-.33c0,0-1.04-2.67-1.71-2.78-.67.14-2.31.38-2.74.58-.43.2-1.17.27-1.1,1.03.07.77.07,1.17.47,1.5ZM186.26,22.68l-10.66-6.49c-.34.07.46.56.46.56,0,0,8.54,6.14,8.91,6.41s1.29-.49,1.29-.49h0ZM165.66,27.41l3.4.08c.38,0,.39-.16.39-.37s-.02-.38-.37-.39l-3.4-.08c-.32,0-.39.16-.39.37,0,.35.16.39.37.39ZM165.95,24.01c.3.33,17.32.73,17.32.73.21.02,1.38-.11.33-1.3-.97-1.1-7.41-5.64-7.71-5.77s-1.27-.97-4.47-1.23c-3.2-.27-6.81-.37-6.81-.37,0,0,1.04,7.61,1.34,7.94h0ZM162.98,23.91l-.27-7.44c0-.67-.83-.63-.83-.63,0,0-9.25,0-9.78-.03-.54-.03-.8.43-.8.43,0,0-3.3,4.61-4.44,7.14,0,.17,16.12.53,16.12.53h0ZM146.23,26.7l3.4.08c.38,0,.39-.16.39-.37s-.02-.38-.37-.39l-3.4-.09c-.32,0-.39.16-.39.38,0,.35.16.39.37.39ZM141.7,23.25c.38.03,3.6.1,3.84,0,2.03-3.3,4.83-7.31,4.83-7.31,0,0-2.12.08-4.53,1.69-2.4,1.6-3.06,2.37-4.42,3.59-1.04.99-.38,1.98.28,2.03ZM134.46,28.74c.29-.03,1.65,0,1.65,0,0,0,.2-4.61.42-5.89-.82-.12-1.48.12-1.48.12,0,0-1.07,1.34-.6,5.77h.01Z"/>
</svg>